# xmcd CD database file
# Copyright (C) 1993-1998 Ti Kan
#
# Track frame offsets:
#  150
#  13837
#  24050
#  34485
#  46917
#  58187
#  69805
#  78275
#  89780
#  101542
#  113925
#  123542
#  133827
#  145540
#  158287
#  168910
#  180295
#  190390
#
# Disc length: 2699 seconds
#
# Revision: 1
# Processed by: cddbd v1.4b41PL1 Copyright (c) Steve Scherf et al.
# Submitted via: CDWizzard Release:4.60
#
DISCID=e60a8912
DTITLE=Five Satins - In The Still Of The Night
DYEAR=1900
DGENRE=
TTITLE0=In The Still Of The Night
TTITLE1=Wonderful Girl
TTITLE2=When Your Love Comes Along
TTITLE3=To The Asile
TTITLE4=A Million To One
TTITLE5=A Nite To Remember
TTITLE6=The Jones Girl
TTITLE7=Shadows
TTITLE8=Love With No Love In Return
TTITLE9=The Time
TTITLE10=Pretty Baby
TTITLE11=Candlelight
TTITLE12=When The Swallows Come Back
TTITLE13=A Nite Like This
TTITLE14=Skippity Doo
TTITLE15=You Must Be An Angle
TTITLE16=Toni My Love
TTITLE17=I'll Be Seeing You
EXTD=Featuring Fred Paris
EXTT0=
EXTT1=
EXTT2=
EXTT3=
EXTT4=
EXTT5=
EXTT6=
EXTT7=
EXTT8=
EXTT9=
EXTT10=
EXTT11=
EXTT12=
EXTT13=
EXTT14=
EXTT15=
EXTT16=
EXTT17=
PLAYORDER=
